<svg xmlns="http://www.w3.org/2000/svg" viewBox="0 0 89.96 80.08"><defs><style>.cls-1{fill:#f1f1f1;}.cls-2{fill:#fff;}.cls-3{fill:#f9a826;}</style></defs><title>资源 5</title><g id="图层_2" data-name="图层 2"><g id="图层_9" data-name="图层 9"><ellipse class="cls-1" cx="36.44" cy="39.35" rx="35.27" ry="33.23"/><path class="cls-2" d="M90,80.08l-29.18-8.7a44.56,44.56,0,0,1-19.39,4.41C18.57,75.79,0,58.79,0,37.89S18.57,0,41.39,0s41.4,17,41.4,37.89a36.62,36.62,0,0,1-13.3,27.84ZM60.73,70.76l.11,0,25.85,7.7L68.53,65.77l.29-.25A36,36,0,0,0,82.2,37.89C82.2,17.32,63.9.58,41.39.58S.58,17.32.58,37.89,18.89,75.21,41.39,75.21a44,44,0,0,0,19.24-4.4Z"/><path d="M41.39,0C18.57,0,0,17,0,37.89s18.57,37.9,41.39,37.9h.07a44.57,44.57,0,0,0,19.32-4.41L90,80.08,69.49,65.73a36.62,36.62,0,0,0,13.3-27.84C82.79,17,64.22,0,41.39,0Zm.07,75.21h-.07C18.89,75.21.58,58.47.58,37.89S18.89.58,41.39.58,82.2,17.32,82.2,37.89A36,36,0,0,1,68.82,65.52l-.29.25L86.69,78.49l-25.85-7.7-.11,0-.1,0a44.06,44.06,0,0,1-19.17,4.4Z"/><circle class="cls-3" cx="27.55" cy="40.08" r="3.21"/><circle class="cls-3" cx="36.87" cy="40.08" r="3.21"/><circle class="cls-3" cx="46.2" cy="40.08" r="3.21"/></g></g></svg>