<svg xmlns="http://www.w3.org/2000/svg" viewBox="0 0 110.29 124.78"><defs><style>.cls-1{fill:#2f2e41;}.cls-2{fill:#f9a826;}.cls-3{opacity:0.3;}.cls-3,.cls-4{isolation:isolate;}.cls-4{opacity:0.1;}.cls-5{fill:#f2f2f2;}.cls-6{fill:#3f3d56;}</style></defs><title>资源 3</title><g id="图层_2" data-name="图层 2"><g id="图层_9" data-name="图层 9"><path class="cls-1" d="M55.15,110.29a55.14,55.14,0,1,1,39-16.15A55.15,55.15,0,0,1,55.15,110.29ZM55.15.42a54.73,54.73,0,1,0,54.72,54.73A54.79,54.79,0,0,0,55.15.42Z"/><polygon class="cls-2" points="83.88 72.6 83.87 72.6 56.69 87.74 26.93 72.86 26.41 72.6 27.96 41.71 54.84 22.55 55.13 22.74 82.95 40.16 83.88 72.6"/><polygon class="cls-3" points="83.87 72.6 56.69 87.74 26.93 72.86 53.29 54.37 83.87 72.6"/><polygon class="cls-4" points="83.88 72.6 53.29 54.37 55.13 22.74 82.95 40.16 83.88 72.6"/><polygon class="cls-5" points="27.56 51.24 27.41 51.03 54.59 31.84 83.3 49.84 83.16 50.06 54.6 32.16 27.56 51.24"/><polygon class="cls-5" points="27.04 61.73 26.89 61.52 53.93 43.16 54 43.2 83.32 59.82 83.19 60.05 53.94 43.47 27.04 61.73"/><polygon class="cls-5" points="37.35 78.15 37.22 77.92 64.03 61.04 64.03 28.68 64.75 28.68 64.75 61.18 37.35 78.15"/><polygon class="cls-5" points="48.05 83.49 47.91 83.27 74.07 66.81 74.07 34.42 74.79 34.42 74.79 66.96 48.05 83.49"/><polygon class="cls-5" points="74.05 78.15 43.53 61.19 43.54 61.11 45.15 29.36 45.41 29.37 43.8 61.04 74.18 77.92 74.05 78.15"/><polygon class="cls-5" points="64.45 83.5 34.28 67.69 34.28 67.6 36.06 35.83 36.32 35.85 34.55 67.53 64.57 83.27 64.45 83.5"/><circle class="cls-6" cx="89.03" cy="12" r="10.52"/><line class="cls-1" x1="3.79" y1="124.78" x2="3.79" y2="124.06"/></g></g></svg>