<svg xmlns="http://www.w3.org/2000/svg" viewBox="0 0 107.53 89.69"><defs><style>.cls-1{fill:#f9a826;}.cls-2{fill:#d0cde1;}.cls-3{fill:#a0616a;}.cls-4{fill:#2f2e41;}.cls-5{opacity:0.15;isolation:isolate;}.cls-6{fill:#3f3d56;}</style></defs><title>资源 2</title><g id="图层_2" data-name="图层 2"><g id="图层_9" data-name="图层 9"><path class="cls-1" d="M101.58,28.69A18,18,0,0,1,97.44,40.6c-5.63,6.89-16.12,10.67-25.59,16.78-28,18.05-31-10.87-29.74-28.69A31.81,31.81,0,0,1,49.87,9.87a31.35,31.35,0,0,1,3-3,28.94,28.94,0,0,1,19-6.9A29.74,29.74,0,0,1,99.61,18.4a27.89,27.89,0,0,1,2,10.29Z"/><path class="cls-2" d="M78.18,6.4,49.87,9.8a30.12,30.12,0,0,1,3-3Z"/><path class="cls-2" d="M99.16,38.32a17.59,17.59,0,0,1-1.72,2.47L73.19,37.87Z"/><path class="cls-2" d="M100.6,21.36,59.5,16,99.61,18.4A25.7,25.7,0,0,1,100.6,21.36Z"/><path class="cls-1" d="M44.9,7.64a1.55,1.55,0,0,1,0,.22,3,3,0,1,1-5.59-1.6c.07-.13.14-.24.22-.36a3,3,0,0,1,5.37,1.5A1.93,1.93,0,0,1,44.9,7.64Z"/><path class="cls-2" d="M44.9,8a1.62,1.62,0,0,1,0,.22l-4.45-.54,4.45.08A1.93,1.93,0,0,1,44.9,8Z"/><path class="cls-2" d="M43.84,9.21l-4.12.5a4.13,4.13,0,0,1-.31-.42Z"/><path class="cls-2" d="M42.67,6l-3.37.41c.07-.12.14-.24.22-.35Z"/><path class="cls-1" d="M85.63,61.15a1.18,1.18,0,0,1-.11.19,3,3,0,1,1-4.18-4,2.12,2.12,0,0,1,.36-.21,3,3,0,0,1,4,3.84A1.51,1.51,0,0,1,85.63,61.15Z"/><path class="cls-2" d="M85.63,61.15a1.18,1.18,0,0,1-.11.19l-3.67-2.56,3.89,2.15A1.51,1.51,0,0,1,85.63,61.15Z"/><path class="cls-2" d="M84,62l-3.86-1.49A3.15,3.15,0,0,1,80,60Z"/><path class="cls-2" d="M84.51,58.52,81.34,57.3a2.12,2.12,0,0,1,.36-.21Z"/><path class="cls-1" d="M106.68,9.92l.15.16a3,3,0,0,1-4.55,3.83,2.91,2.91,0,0,1-.57-1.07,3,3,0,0,1-.09-.41,3,3,0,0,1,4.89-2.68Z"/><path class="cls-2" d="M106.68,9.92l.15.16-3.56,2.72,3.24-3.05Z"/><path class="cls-2" d="M107,11.73,104.37,15a3,3,0,0,1-.52-.08Z"/><path class="cls-2" d="M103.84,10.19l-2.13,2.65a3,3,0,0,1-.09-.41Z"/><path class="cls-3" d="M50.93,64.69s6.52.27,6.52,1.9-7.34,0-7.34,0Z"/><path class="cls-4" d="M41.14,89.69l-12.23-.81-.54-6.53-2.72,5.71L13.7,86.43C14,76.1,18.32,66.05,18.59,64.69s.92-7,.92-7C20.7,55.2,26.92,55,31.8,55.19c2,.09,3.81.27,4.92.39l1.16.14a17,17,0,0,1,4,7.8C44.64,74.54,41.14,89.69,41.14,89.69Z"/><circle class="cls-3" cx="27.56" cy="19.85" r="6.79"/><path class="cls-3" d="M22.94,21.48S21,29.91,18,32.35s11.69,0,11.69,0-3.26-5.43-.82-7.88S22.94,21.48,22.94,21.48Z"/><path class="cls-2" d="M36.79,56.27l-4.5.5-12.62,1.4-.16-.45c-.92-2.5-5.33-14.65-5.81-18.3-.55-4.08,5.16-9,5.16-9a66.49,66.49,0,0,1,7.06-1.09c1.64,0,8.16,2.45,8.16,2.45l2.43,21.88.21,1.89Z"/><path class="cls-5" d="M41.86,63.52l-9.14-5.35-.43-1.4c-.14-.44-.31-1-.49-1.58-1.06-3.39-2.83-9-4.24-13.06C25.38,35.88,36,53.28,36,53.28l.53.41.21,1.89,1.16.14A17,17,0,0,1,41.86,63.52Z"/><path class="cls-2" d="M29.73,32.35s-2.72,3.53-.54,9.78,5.16,16,5.16,16l15.76,9.24,2.17-2.72L37.61,53.28s-.54-20.66-3.26-21.47A5.55,5.55,0,0,0,29.73,32.35Z"/><path class="cls-3" d="M16.28,56.13s3.8,7.88,5.43,7.07-4.07-9-4.07-9Z"/><path class="cls-2" d="M15.87,34.53,1.47,46.48S-4,50.29,6.09,53,17,57.35,17,57.35s1.08-3.53,2.44-3L7.72,48.66,17.23,43Z"/><path class="cls-4" d="M10.08,25.43a38.94,38.94,0,0,0,3.85-2c-.1-3,.26-5.65,1.33-7.08a15.73,15.73,0,0,1,2.84-3.79c2.42-2.64,7.77-4.11,8.72-2.79,7.18.14,7.94,5.77,7.94,5.77,0,2.35-2.49,2.43-4.63,2.34a3.79,3.79,0,0,1-1.8,4c-2.83,1.41-3.68,3.25-2.26,4.53s4,4.67.56,5.52-3.82,2.55-2.83,3.25-2.27-1.27-2.27-1.27S21,37.29,18,36.44a1.81,1.81,0,0,1-.8-.56c-.8.88-1.52,1.4-2.06,1.4-3.09,0-2.72-3.41-2.72-3.41s-3.67,1-2.52.62,1.19-2.16-1.85-3.9S8.37,26.27,10.08,25.43Z"/><path class="cls-6" d="M48,34.3H48l.12.45a12.08,12.08,0,0,0,.49,1.88L52.11,50A2.29,2.29,0,0,0,54,51.71l7.19,1.11a2.25,2.25,0,0,0,2.35-1.18l6.84-12.76c.21-.36.41-.72.58-1.09l.23-.44h0A12.08,12.08,0,1,0,48,34.3Z"/><path class="cls-2" d="M61.59,53.69a2.31,2.31,0,0,1-.37,0L53.7,52.5a2.46,2.46,0,0,1-2-1.82L48,36.67a12.16,12.16,0,0,1-.52-2l-.09-.62a12.74,12.74,0,0,1,11-14.25,12.49,12.49,0,0,1,3.56.05l0,.21A12.52,12.52,0,0,0,47.64,30.56a12.27,12.27,0,0,0,0,3.63l.07.46a12.69,12.69,0,0,0,.51,2l3.69,14a2.28,2.28,0,0,0,1.85,1.66l7.52,1.16a2.25,2.25,0,0,0,2.34-1.17l.19.1A2.47,2.47,0,0,1,61.59,53.69Z"/><rect class="cls-2" x="54.69" y="43.51" width="13.3" height="0.27" transform="translate(-0.74 86.23) rotate(-69.88)"/><rect class="cls-2" x="56.05" y="36.2" width="0.27" height="13.3" transform="translate(-1.83 2.51) rotate(-2.52)"/><path class="cls-6" d="M61,60.05l-9.64-1.49a.28.28,0,0,1,.09-.55L61,59.5a.28.28,0,0,1,.23.32.27.27,0,0,1-.31.23Z"/><path class="cls-6" d="M61.2,58l-9.63-1.49a.27.27,0,1,1,.08-.54h0l9.63,1.49a.27.27,0,0,1-.08.54Z"/><path class="cls-6" d="M61.45,56l-9.63-1.49a.29.29,0,0,1-.23-.32.27.27,0,0,1,.31-.23l9.64,1.49a.28.28,0,0,1-.09.55Z"/><path class="cls-6" d="M55.84,61.24c1.91.29,3.63-.53,3.83-1.85l-6.92-1.07C52.55,59.64,53.93,60.94,55.84,61.24Z"/><path class="cls-2" d="M59.3,34.72a1.63,1.63,0,0,1-.93-.61l-.18-.22a2.17,2.17,0,0,0-.71-.65c-.63-.3-1.37.11-2,.55l-.15-.22A2.37,2.37,0,0,1,57.6,33a2.43,2.43,0,0,1,.8.73l.18.22c.19.22.58.59,1,.5a1.3,1.3,0,0,0,.48-.25,1.94,1.94,0,0,1,.34-.21,1.39,1.39,0,0,1,1.67.42,1,1,0,0,0,.39.32,1,1,0,0,0,.72-.19,1.38,1.38,0,0,1,.83-.25h0c.54.09.79.69.93,1.13l-.26.08c-.2-.6-.43-.9-.73-.94a1.21,1.21,0,0,0-.67.22,1.16,1.16,0,0,1-.93.21,1.19,1.19,0,0,1-.51-.4l-.18-.19a1.09,1.09,0,0,0-1.17-.17,1.57,1.57,0,0,0-.3.2,1.58,1.58,0,0,1-.58.29A.92.92,0,0,1,59.3,34.72Z"/></g></g></svg>