<svg xmlns="http://www.w3.org/2000/svg" xmlns:xlink="http://www.w3.org/1999/xlink" viewBox="0 0 94.04 93.92"><defs><style>.cls-1,.cls-4{fill:#f9a826;}.cls-1,.cls-2,.cls-9{opacity:0.1;}.cls-1,.cls-11,.cls-9{isolation:isolate;}.cls-3{fill:#3a3768;}.cls-5{fill:#e6e8ec;}.cls-6{fill:url(#未命名的渐变_8);}.cls-7{fill:url(#未命名的渐变_8-2);}.cls-8{fill:#fec2be;}.cls-10{fill:#4c4981;}.cls-11{opacity:0.05;}.cls-12{fill:#ca8496;}.cls-13{fill:#ceddf9;}.cls-14{fill:#fff;}.cls-15{fill:#ff718d;}.cls-16{fill:#9a5e7f;}</style><linearGradient id="未命名的渐变_8" x1="-4419.08" y1="-5594.41" x2="-4419.08" y2="-5589.88" gradientTransform="matrix(1, 0, 0, -1, 4489.34, -5572.16)" gradientUnits="userSpaceOnUse"><stop offset="0" stop-color="gray" stop-opacity="0.25"/><stop offset="0.54" stop-color="gray" stop-opacity="0.12"/><stop offset="1" stop-color="gray" stop-opacity="0.1"/></linearGradient><linearGradient id="未命名的渐变_8-2" x1="-4420.54" y1="-5664.94" x2="-4420.54" y2="-5574.85" xlink:href="#未命名的渐变_8"/></defs><title>资源 4</title><g id="图层_2" data-name="图层 2"><g id="图层_9" data-name="图层 9"><ellipse class="cls-1" cx="75.97" cy="91.02" rx="16.85" ry="2.9"/><ellipse class="cls-1" cx="24.95" cy="88.18" rx="24.95" ry="1.76"/><g class="cls-2"><path d="M26.79,75.71a2.77,2.77,0,0,0,2.35,1.52c1.65,0,3-1.73,3-3.88s-1.34-3.87-3-3.87a2.62,2.62,0,0,0-2,1,4.18,4.18,0,0,0-.51.8l0,.17a1.22,1.22,0,0,1-1.43,0V58.85H12.81a.85.85,0,0,1-.14-.87,1.18,1.18,0,0,1,.55-.67A2.8,2.8,0,0,0,14.74,55c0-1.64-1.74-3-3.88-3S7,53.3,7,55a2.65,2.65,0,0,0,1,2,4.59,4.59,0,0,0,.79.5l0,0C9.18,57.86,9,59,9,59H3.51V82.27A5.51,5.51,0,0,0,9,87.79H25V75.38s.76-.34,1.1-.22A1.2,1.2,0,0,1,26.79,75.71Z"/><path d="M6.15,58.36H8.08a3.88,3.88,0,0,1-1.52-3,4.15,4.15,0,0,1,4.3-4,4.16,4.16,0,0,1,4.3,4,3.88,3.88,0,0,1-1.52,3H25.17V46s.62-.33,1-.21a1.15,1.15,0,0,1,.67.55,2.8,2.8,0,0,0,2.36,1.52c1.64,0,3-1.74,3-3.88s-1.33-3.89-3-3.89a2.63,2.63,0,0,0-2,1,4.1,4.1,0,0,0-.51.79l0,0a1.16,1.16,0,0,1-1.46.2V29.42H13.3a.74.74,0,0,1-.15-.81,1.18,1.18,0,0,1,.56-.68,2.81,2.81,0,0,0,1.52-2.36c0-1.64-1.74-3-3.89-3s-3.88,1.33-3.88,3a2.62,2.62,0,0,0,1,2,3.63,3.63,0,0,0,.79.5l0,0a1.29,1.29,0,0,1,.23,1.48H6.09v-.81H8.63a3.52,3.52,0,0,1-1.52-2.93,4.16,4.16,0,0,1,4.31-4,4.16,4.16,0,0,1,4.3,4c0,1.19-1.52,3.09-1.52,3.09h11V16.39a1,1,0,0,1,1-.21,1.15,1.15,0,0,1,.67.55,2.84,2.84,0,0,0,2.37,1.52c1.64,0,3-1.74,3-3.88s-1.33-3.88-3-3.88a2.63,2.63,0,0,0-2,1,4.1,4.1,0,0,0-.51.79l0,.17a1.31,1.31,0,0,1-1.5,0V.81H9A5.52,5.52,0,0,0,3.51,6.34v5.79H3.43a.93.93,0,0,0-.41.42H3v2.83c.09.18.23.33.41.3h.08v2.91H3.4a.47.47,0,0,0-.38.34v5.41c.06.18.38.23.38.23h.11v2.27H3.42c-.17-.05-.4.28-.4.28H3v1.66h.16v3.75c-.15.18.17.29.17.29h.16V58.36Z"/><path d="M48.13,20.69a.33.33,0,0,0-.33-.32h-.16v-.32h0V6A5.31,5.31,0,0,0,42.31.65h-16V11.39a3.93,3.93,0,0,1,3.13-1.56,4.17,4.17,0,0,1,4,4.29,4.18,4.18,0,0,1-4,4.3,4,4,0,0,1-3.13-1.56V28.78H39.17s-1.51-1.78-1.52-3a4.16,4.16,0,0,1,4.3-4,4.48,4.48,0,0,1,2.89,1,3.78,3.78,0,0,1,.59,5.32c-.17.22-.37.42-.54.6v0h3.24Z"/><path d="M43.92,57.81V56.28h0c.06-.09.12-.18.17-.27a2.32,2.32,0,0,0,.29-1.13,2.28,2.28,0,0,0-.14-.77,2.15,2.15,0,0,0-.32-.62h0a4.15,4.15,0,0,0-3.43-1.58c-2.15,0-3.89,1.33-3.89,3a2.62,2.62,0,0,0,1,2,3.63,3.63,0,0,0,.79.5l0,0a1.21,1.21,0,0,1,.23,1.42H26.14V70.48a3.88,3.88,0,0,1,3.09-1.56,4.32,4.32,0,0,1,0,8.61A3.85,3.85,0,0,1,26.14,76v9.39H40.51A3.41,3.41,0,0,0,43.92,82v-23h0V82a3.37,3.37,0,0,1-3.46,3.34H26.14v2.43h15a5.46,5.46,0,0,0,5.39-5.54h0V59h0v-.61H43.92Z"/></g><path class="cls-3" d="M9.66,84.87a3.4,3.4,0,0,1-3.4-3.4V58.36H3.67V81.62a5.45,5.45,0,0,0,5.39,5.52H25.17V84.88Z"/><path class="cls-4" d="M26.25,74.6a1.18,1.18,0,0,1,.67.55,2.8,2.8,0,0,0,2.36,1.52c1.64,0,3-1.74,3-3.88s-1.34-3.88-3-3.88a2.6,2.6,0,0,0-2,1,4.1,4.1,0,0,0-.51.79l0,.17a1.42,1.42,0,0,1-1.58,0V58.2H13a.66.66,0,0,1-.15-.78,1.2,1.2,0,0,1,.55-.68,2.8,2.8,0,0,0,1.53-2.36c0-1.64-1.74-3-3.89-3s-3.89,1.34-3.89,3a2.65,2.65,0,0,0,1,2,3.89,3.89,0,0,0,.79.5l0,0c.38.37.24,1.44.24,1.44H6.26V81.47a3.41,3.41,0,0,0,3.41,3.41h15.5V74.81A2.12,2.12,0,0,1,26.25,74.6Z"/><rect class="cls-3" x="3.18" y="28.29" width="0.49" height="0.65"/><rect class="cls-3" x="3.99" y="28.29" width="2.26" height="0.65"/><rect class="cls-3" x="3.67" y="28.29" width="0.32" height="0.65"/><path class="cls-3" d="M3.49,32.17h.18V28.94H3.18v3c0,.18.13.33.3.22Z"/><path class="cls-3" d="M6.26,28.94H4v2.93a.29.29,0,0,1-.3.3h0V57.88H6.26Z"/><path class="cls-3" d="M3.67,32.17h0A.31.31,0,0,0,4,31.86H4V28.94H3.67Z"/><path class="cls-4" d="M6.66,54.83a4.16,4.16,0,0,1,4.32-4,4.15,4.15,0,0,1,4.31,4,3.88,3.88,0,0,1-1.52,3.05H25.33V45.43s.6-.33,1-.21a1.2,1.2,0,0,1,.68.55,2.79,2.79,0,0,0,2.36,1.53c1.64,0,3-1.74,3-3.89s-1.33-3.89-3-3.89a2.63,2.63,0,0,0-2,1,4.18,4.18,0,0,0-.51.8h0a1.15,1.15,0,0,1-1.45.2V28.94H13.44a1,1,0,0,1-.15-.9,1.22,1.22,0,0,1,.56-.68A2.81,2.81,0,0,0,15.37,25c0-1.64-1.74-3-3.88-3S7.6,23.36,7.6,25a2.63,2.63,0,0,0,1,2,4.1,4.1,0,0,0,.79.51l0,0c.38.37.23,1.56.23,1.56H6.26V57.88H8.18A3.88,3.88,0,0,1,6.66,54.83Z"/><path class="cls-3" d="M4,26.49a.29.29,0,0,0-.3-.3h0v2.1H4Z"/><path class="cls-3" d="M3.65,11.64H3.57a.5.5,0,0,0-.39.34h0v2.83a.68.68,0,0,0,.39.39h.1V11.66Z"/><path class="cls-3" d="M3.55,18.11c-.18-.08-.33.06-.37.24v5.42a.39.39,0,0,0,.37.32h.12v-6Z"/><path class="cls-3" d="M3.67,26.19h-.1a.5.5,0,0,0-.39.35h0v1.75h.49Z"/><path class="cls-3" d="M3.67,5.64v6a.34.34,0,0,1,.32.34v2.94a.33.33,0,0,1-.32.33v2.91h0c.18-.08.32.07.28.25H4v5.41c0,.18-.28.32-.28.32h0v2.1h0a.31.31,0,0,1,.3.32v1.78H6.26V5.83a3.37,3.37,0,0,1,3.35-3.4h4.73V3a2.81,2.81,0,0,0,2.81,2.81h8.18V4h-3.8A.57.57,0,0,1,21,3.46V3.33a.57.57,0,0,1,.56-.58h3.8V.16H9.21A5.51,5.51,0,0,0,3.67,5.64Z"/><path class="cls-3" d="M4,14.86V11.93a.33.33,0,0,0-.32-.34V15.2A.34.34,0,0,0,4,14.86Z"/><path class="cls-3" d="M4,23.77V18.35a.2.2,0,0,0-.28-.24h0v6h0A.27.27,0,0,0,4,23.77Z"/><path class="cls-4" d="M7.2,25.25a4.18,4.18,0,0,1,4.34-4,4.18,4.18,0,0,1,4.33,4,3.84,3.84,0,0,1-1.53,3h11V15.74a1,1,0,0,1,1-.21,1.17,1.17,0,0,1,.68.55A2.82,2.82,0,0,0,29.4,17.6c1.65,0,3-1.74,3-3.88s-1.34-3.88-3-3.88a2.65,2.65,0,0,0-2,1,3.33,3.33,0,0,0-.51.79l0,.17a1.33,1.33,0,0,1-1.51,0v-6H17.16A2.81,2.81,0,0,1,14.34,3V2.43H9.69a3.41,3.41,0,0,0-3.43,3.4h0V28.29H8.73A3.89,3.89,0,0,1,7.2,25.25Z"/><path class="cls-5" d="M21.53,2.74a.58.58,0,0,0-.56.59v.13a.57.57,0,0,0,.56.58h3.8V2.75Z"/><path class="cls-3" d="M46.83,19.9v8.39h1V19.56h-.52C47,19.56,46.83,19.71,46.83,19.9Z"/><rect class="cls-3" x="26.46" width="1.13" height="2.59"/><rect class="cls-3" x="26.46" y="3.88" width="1.13" height="1.78"/><rect class="cls-5" x="26.46" y="2.59" width="1.13" height="1.29"/><path class="cls-3" d="M48,19.89h-.32v8.4h.65V20.21A.32.32,0,0,0,48,19.89Z"/><path class="cls-3" d="M27.54,2.59c.31.11.54.66.54.66v.12l-.65.54V5.82H34A2.83,2.83,0,0,0,36.81,3V2.43h4.92a3.36,3.36,0,0,1,3.33,3.39V22.3a3.83,3.83,0,0,1,.58,5.3,4.11,4.11,0,0,1-.58.6v.09H47V19.93s0,0,0,0h.61V5.33A5.11,5.11,0,0,0,42.8,0H27.43V2.59Zm2.15,0a.69.69,0,1,1-.69.69h0A.69.69,0,0,1,29.69,2.62Z"/><path class="cls-4" d="M29.52,9.29a4.17,4.17,0,0,1,4,4.31,4.17,4.17,0,0,1-4,4.3c-1.22,0-3.06-1.56-3.06-1.56v12H39.37a3.9,3.9,0,0,1-1.51-3.05,4.16,4.16,0,0,1,4.3-4,4.51,4.51,0,0,1,2.9,1.05V5.83a3.41,3.41,0,0,0-3.42-3.4H36.81V3A2.81,2.81,0,0,1,34,5.82H26.3v5A4.33,4.33,0,0,1,29.52,9.29Z"/><path class="cls-5" d="M27.56,3.88a.54.54,0,0,0,.52-.55V3.21a.69.69,0,0,0-.52-.62h-.13V3.88Z"/><circle class="cls-5" cx="29.69" cy="3.31" r="0.69"/><path class="cls-3" d="M44.09,57.22V55.8a2.39,2.39,0,0,0,0-2.79Z"/><rect class="cls-3" x="44.09" y="57.72" width="2.59" height="0.65"/><path class="cls-4" d="M43,56.66a1.28,1.28,0,0,0-.59.72,1.08,1.08,0,0,0,.16,1h1.57v-.64h-.61a5.58,5.58,0,0,0,.61-.58V55.63A3.63,3.63,0,0,1,43,56.66Z"/><path class="cls-4" d="M43.52,57.72h.57v-.55A4.94,4.94,0,0,1,43.52,57.72Z"/><path class="cls-3" d="M44.54,54.41A2.38,2.38,0,0,0,44.09,53V55.8A2.47,2.47,0,0,0,44.54,54.41Z"/><path class="cls-3" d="M46.67,58.36V81.62a5.52,5.52,0,0,1-5.51,5.52H26.3V84.88H40.68a3.41,3.41,0,0,0,3.41-3.41V58.36Z"/><path class="cls-4" d="M42.46,57.43a1.18,1.18,0,0,1,.55-.67,3.46,3.46,0,0,0,1.08-1V53a4.19,4.19,0,0,0-3.44-1.58c-2.15,0-3.89,1.33-3.89,3a2.6,2.6,0,0,0,1,2,4.1,4.1,0,0,0,.79.51l0,0a1.18,1.18,0,0,1,.23,1.41H26.3V70a3.92,3.92,0,0,1,3.09-1.56,4.32,4.32,0,0,1,0,8.62,3.92,3.92,0,0,1-3.09-1.56v9.39H40.67a3.43,3.43,0,0,0,3.42-3.41V58.36H42.61A1,1,0,0,1,42.46,57.43Z"/><path class="cls-6" d="M69.36,22.25a2.7,2.7,0,0,0,1.58-1.73,2.33,2.33,0,0,0,0-.28,1.43,1.43,0,0,0,.09-.27,2.61,2.61,0,0,0-.54-2.25l-1,4h0Z"/><path class="cls-7" d="M93.28,20.76c-.16-1-3.16-3-3.16-3a8.26,8.26,0,0,1-2-1.52c-.45-.52-.59-.52-.63-.45a.17.17,0,0,0-.1,0l-.08-.06h0a.18.18,0,0,0-.11-.19l-.1-.07a3.28,3.28,0,0,1-.34-1.4c0-.59-.71-.44-.94-.37-.15-.3-.31-.61-.46-.92a1.37,1.37,0,0,0,.16-.32A11.76,11.76,0,0,0,86,9.52c.13-.7.43-2.09.43-2.09v0h0a1.72,1.72,0,0,0-.11-.5C86.21,6.6,86,6.34,85.9,6s-.06-1-.18-1.44a2.15,2.15,0,0,0-1.23-1.31,6.28,6.28,0,0,0-1.82-.43,8.56,8.56,0,0,0-4.61.34.82.82,0,0,1-.43.12,1.44,1.44,0,0,1-.4-.18A1.18,1.18,0,0,0,76,3.3a3.4,3.4,0,0,0-.8,1,3.09,3.09,0,0,1-.82.94c-.42.28-1,.37-1.29.74a1.23,1.23,0,0,0-.27.62v0l0,.36a4.16,4.16,0,0,0,.25.83,1.31,1.31,0,0,0,.37.63c.5.4,1.29,0,1.89.25l.15.06s0,0,0,.07a4.73,4.73,0,0,0-.2,1.34,4.9,4.9,0,0,0,5,4.83h.31l0,.16a5.25,5.25,0,0,1,.14,1.81l0-.27a1.31,1.31,0,0,0-.21-.08,2,2,0,0,0-.61-.09,3.58,3.58,0,0,0-2.78,1.57s-1.38.77-1.79.95a.16.16,0,0,0-.07.09h0a18.59,18.59,0,0,0-2,3.84l-.43,2.27s-.46,1.38-.76,2a6.65,6.65,0,0,0-.6,1.46A1.23,1.23,0,0,1,71,29.87a2.24,2.24,0,0,0-.71,1.37s-.29.27-.69.61h0l1.49-5.7.27.07a.33.33,0,0,0,.35-.12.23.23,0,0,0,.06-.12l.3-1.15.12-.46,0-.09.17-.67-.59-.14-.7-.18-2-.49.17-.65h0l.14-.56h0l.9-3.43h0l.14-.55A4.7,4.7,0,0,0,67.89,16c-2.16-.53-4.24.33-4.66,1.93,0,.1,0,.19-.06.29l-.09.27a2.22,2.22,0,0,0,0,.85.68.68,0,0,0,0,.14,2.86,2.86,0,0,0,.54,1.22,4,4,0,0,0,.67.69v0a1.29,1.29,0,0,1,.19.64v0l-.17.24L51.12,19.06l-.14.55h0L48,31h0a4.15,4.15,0,0,1,1.28-.68,5.09,5.09,0,0,1,.56-.14h.06a4,4,0,0,1,4.63,3.55,4.43,4.43,0,0,1,0,.63,4.26,4.26,0,0,1-.08.8,4.32,4.32,0,0,1-5,2.94,4,4,0,0,1-2.69-2.3l-.15.55h0L43.57,48l11.65,2.89h0l.13-.56h.17a6.83,6.83,0,0,1-.8-3s0,0,0-.05,0-.08,0-.12a3.71,3.71,0,0,1,.29-.56,2.11,2.11,0,0,1,.18-.27l.12-.16a4.31,4.31,0,0,1,.69-.66l.08-.06.29-.19a1,1,0,0,0,.17-.1,4.7,4.7,0,0,1,2.23-.53,5.81,5.81,0,0,1,1.11.14,4.56,4.56,0,0,1,2.73,1.91,3.14,3.14,0,0,1,.24.39,4.26,4.26,0,0,1,.4,1.3,3.91,3.91,0,0,1,0,1.08,3.85,3.85,0,0,1-1.5,1.94l-.14.43h0l0,.12-.14.53,2.64.66,3.75-14.32a2.27,2.27,0,0,0,1.53-.64,7.72,7.72,0,0,1,1.89-.92c.33-.09.72-.15,1-.22-.37,1.8-.71,3.54-.68,3.65s.07,0,.17-.16a.81.81,0,0,0,0,.16s0,0,.09-.05v0s-2.1,4.07-2.27,4.54a2.11,2.11,0,0,0,.69,2,1.18,1.18,0,0,1,.33.3l-.07.15A2.94,2.94,0,0,0,70.15,49a1.85,1.85,0,0,1-.29,1.23S68,55.83,68.08,57.45a34.69,34.69,0,0,1-.64,5.18s-.75,2.29-.31,2.94a16.26,16.26,0,0,1,1,3.5,2.85,2.85,0,0,1,.33,1.2,6,6,0,0,0,.32,1.56l1.14,4.09a3.56,3.56,0,0,0,.3,1.86c.42.77.38.53.18,1.87a2.94,2.94,0,0,0,1,3,.44.44,0,0,1,.21.62h0c-.18-.08-.34.31-.43.62L71,84h.06a2.64,2.64,0,0,0-.06.26s-1.9,1.58-2,2.16-1.45.87-1.45.87a24.57,24.57,0,0,0-2.56.82,1,1,0,0,0-.55.77,2.07,2.07,0,0,0,.07.78c.2.8,3,.88,4.39.67s4.17-1,4.17-1a24,24,0,0,0,3.83-.63c.87-.35.18-1.27.19-1.27v-.08a5.18,5.18,0,0,0-.14-1.84,2.72,2.72,0,0,1-.13-1.24c.59-1.06-.68-4.25-.68-4.25a23.53,23.53,0,0,0,.08-3.58c-.16-.45-.85-4.32-.85-4.32A7.28,7.28,0,0,1,75.09,70c.16-.29-.1-1.14-.1-1.14s-.69-.95-.63-1.25a1.8,1.8,0,0,0-.2-.83s2.06-3.08,1.88-3.65a3.2,3.2,0,0,1,.08-1.5l.57-1c.38-.64.85-1.41,1-1.65a18.86,18.86,0,0,0,.94-2.35c.12-.31.19-.53.19-.53a58.94,58.94,0,0,0,.61,6.4,47.11,47.11,0,0,1,.71,5.27,3.42,3.42,0,0,1,.2,1.31A32.33,32.33,0,0,0,81,73.05a12,12,0,0,1,.1,2.84,41.71,41.71,0,0,0,0,5,5.74,5.74,0,0,0-1.4,1.5,6.56,6.56,0,0,0,0,2.43l.13.06a4.25,4.25,0,0,0-.23.77c0,.38-.65,2.07-.59,2.31s-.26,1-.3,1.34-.54.93-.59,1.13a3.38,3.38,0,0,1-.22.52,4.67,4.67,0,0,0-.26.8c-.2.83,2.2,1,2.2,1,3.56.65,4.21-2,4.21-2a20.1,20.1,0,0,1,.61-2.55.31.31,0,0,0,0-.23h0a3.18,3.18,0,0,0-.52-1.12,1.33,1.33,0,0,1-.1-.77,1.7,1.7,0,0,0,.31-.06c1.43-.41.85-2.8.85-2.8a7.55,7.55,0,0,0,1-2.19,24.7,24.7,0,0,1,.34-2.49c1.24-2.21.75-7.59,1-8s-.42-2-.93-2.79a4.55,4.55,0,0,1,0-3.27c.3-.58-.3-2.56-.3-2.56s.58-3.82.56-4.42a12.73,12.73,0,0,1,.51-2.35s.53-.91.4-1.19.41-1,.27-1.3a3.56,3.56,0,0,1,.38-1.86,10.46,10.46,0,0,0,.43-1.82c0-.08,0-.16,0-.23.59.37,1.13.65,1.33.57.36-.14-.22-2-.61-3.13.07-.05.09-.09.07-.11-.25-.16,0-.87,0-.87,1.43-.84.95-1.47.49-1.84s-.16-1.42-.3-1.84a16.07,16.07,0,0,1,.41-3.74,2.84,2.84,0,0,0,0-.92c.26-.39.53-.81.76-1.19.81-1.32,2.54-7.58,2.54-7.58l0,0c.17-.33.3-.6.37-.78C94.41,25.82,93.44,21.71,93.28,20.76ZM80.75,17.15l0,0v0ZM72.86,84.38a.58.58,0,0,1-.26,0Z"/><path class="cls-8" d="M57.87,38.63a19.38,19.38,0,0,0,5.09.49h.59l.77-1.57-.77-1.31s-.71-.2-1.65-.37c-1.39-.25-3.29-.44-4.2.12C56.19,36.93,56.36,38.06,57.87,38.63Z"/><path class="cls-9" d="M63,39.12h.59l.77-1.57-.77-1.31s-.71-.2-1.65-.37C62.66,36.43,64.5,37.66,63,39.12Z"/><path class="cls-10" d="M75.75,19.89l-.34-.39a19.57,19.57,0,0,0-1.94,3.83c-.18,1-.42,2.25-.42,2.25s-.45,1.36-.74,2A6,6,0,0,0,71.74,29a1.27,1.27,0,0,1-.45,1.2,2.26,2.26,0,0,0-.68,1.37s-2,1.94-3,2-4.07.58-4,1.1-1.26.84-1.81,1,3.54,1.7,1.16,3.72c0,0,1.51.32,1.67.68s1.76-.2,1.76-.2a1.65,1.65,0,0,1,1.52-.87,2.35,2.35,0,0,0,1.78-.66,6.88,6.88,0,0,1,1.84-.91c.67-.19,1.52-.26,1.55-.45s3.93-17,3.93-17Z"/><path class="cls-11" d="M75.75,19.89l-.34-.39a19.57,19.57,0,0,0-1.94,3.83c-.18,1-.42,2.25-.42,2.25s-.45,1.36-.74,2A6,6,0,0,0,71.74,29a1.27,1.27,0,0,1-.45,1.2,2.26,2.26,0,0,0-.68,1.37s-2,1.94-3,2-4.07.58-4,1.1-1.26.84-1.81,1,3.54,1.7,1.16,3.72c0,0,1.51.32,1.67.68s1.76-.2,1.76-.2a1.65,1.65,0,0,1,1.52-.87,2.35,2.35,0,0,0,1.78-.66,6.88,6.88,0,0,1,1.84-.91c.67-.19,1.52-.26,1.55-.45s3.93-17,3.93-17Z"/><path class="cls-12" d="M79.83,92.62c3.46.65,4.09-2,4.09-2a20.88,20.88,0,0,1,.59-2.53.31.31,0,0,0,0-.23h0a3,3,0,0,0-.5-1.11c-.21-.25,0-1.32,0-1.32l-4-1a6.29,6.29,0,0,0-.39,1.18c0,.38-.63,2.07-.57,2.3a9.14,9.14,0,0,1-.29,1.34c0,.37-.53.92-.57,1.12a3.38,3.38,0,0,1-.22.52,5.31,5.31,0,0,0-.25.8C77.49,92.48,79.83,92.62,79.83,92.62Z"/><path class="cls-9" d="M79.83,92.62c3.46.65,4.09-2,4.09-2a20.88,20.88,0,0,1,.59-2.53.31.31,0,0,0,0-.23l-.83,2.39s-.69,1.43-3.25,1.22a6.06,6.06,0,0,1-2.51-.6,4.3,4.3,0,0,0-.26.79C77.49,92.48,79.83,92.62,79.83,92.62Z"/><path class="cls-9" d="M82.53,88.88s-.87,0-.93-.68Z"/><polygon class="cls-4" points="55.63 50.3 56.18 50.44 56.06 51 55.55 50.87 55.63 50.3"/><polygon class="cls-9" points="55.63 50.3 56.18 50.44 56.06 51 55.55 50.87 55.63 50.3"/><rect class="cls-3" x="71.77" y="24.48" width="0.69" height="0.59" transform="translate(30.32 88.54) rotate(-75.72)"/><rect class="cls-3" x="69.86" y="23.3" width="0.69" height="1.96" transform="translate(29.35 86.33) rotate(-75.72)"/><rect class="cls-3" x="71.15" y="24.27" width="0.69" height="0.69" transform="translate(30 87.82) rotate(-75.72)"/><path class="cls-4" d="M69.37,23.62l-.14.07.11,0-.17.66-.84-.21a1,1,0,0,1,.09-.94,1.18,1.18,0,0,1,.71-.52,3.35,3.35,0,0,0,.53-.19Z"/><path class="cls-3" d="M71.37,26.49l.26.07a.32.32,0,0,0,.39-.23h0l.28-1.15L71.74,25Z"/><path class="cls-3" d="M71.18,20.8a2.69,2.69,0,0,1-1.53,1.72l1-4A2.62,2.62,0,0,1,71.18,20.8Z"/><path class="cls-3" d="M71,26.4a.32.32,0,0,1-.24-.39l.29-1.15-1.9-.48L63.38,47.14A3.79,3.79,0,0,1,62.15,52l-.14.53,2.57.65L71.37,26.5Z"/><path class="cls-3" d="M70.78,26a.32.32,0,0,0,.24.39l.35.09L71.74,25l-.67-.17Z"/><path class="cls-4" d="M68.42,23.23a1.18,1.18,0,0,1,.71-.52,3.24,3.24,0,0,0,.52-.19l1-4A4.53,4.53,0,0,0,68.15,17c-2.08-.53-4.09.33-4.5,1.92a2.62,2.62,0,0,0,.5,2.2,3.5,3.5,0,0,0,.64.69v0a1.2,1.2,0,0,1-.12,1.43L52,20,49.1,31.26a3.89,3.89,0,0,1,3.37-.75,4.32,4.32,0,0,1-2.12,8.35,3.89,3.89,0,0,1-2.61-2.28L44.8,48.14,56.06,51a3.87,3.87,0,0,1-.72-3.33,4.17,4.17,0,0,1,5.16-2.82,4.46,4.46,0,0,1,2.88,2.28l5.79-22.76-.83-.21A1,1,0,0,1,68.42,23.23Z"/><path class="cls-4" d="M69.34,23.72l0-.1-.14.07Z"/><g class="cls-2"><path d="M71.91,24.37l-.67-.17-1.9-.48h0l0-.1h0l.28-1.1a3.24,3.24,0,0,1-.52.19,1.18,1.18,0,0,0-.71.52,1.63,1.63,0,0,0-.11.23,1.63,1.63,0,0,1,.11-.23,1.18,1.18,0,0,1,.71-.52,3.63,3.63,0,0,0,.52-.19l1-4A4.56,4.56,0,0,0,68.15,17c-2.08-.53-4.1.33-4.5,1.92a2.65,2.65,0,0,0,.49,2.2,3.88,3.88,0,0,0,.65.69v0a1.19,1.19,0,0,1-.13,1.43L52,20,49.1,31.26a3.89,3.89,0,0,1,3.37-.75,4.32,4.32,0,0,1-2.12,8.35,3.89,3.89,0,0,1-2.61-2.28L44.8,48.14,56.06,51a3.87,3.87,0,0,1-.72-3.33,4.17,4.17,0,0,1,5.16-2.82,4.46,4.46,0,0,1,2.88,2.28A3.79,3.79,0,0,1,62.15,52l-.14.53,2.57.65L71.37,26.5l.26.07a.32.32,0,0,0,.39-.24h0l.28-1.15.17-.66Zm-2.61-.71-.06,0h0Zm-1,.51h0l.84.21h0Z"/><path d="M71.18,20.8a2.65,2.65,0,0,0-.53-2.24l-1,4A2.63,2.63,0,0,0,71.18,20.8Z"/></g><rect class="cls-3" x="71.91" y="23.93" width="0.69" height="0.59" transform="translate(30.95 88.27) rotate(-75.72)"/><rect class="cls-3" x="70" y="22.76" width="0.69" height="1.96" transform="translate(29.99 86.05) rotate(-75.72)"/><rect class="cls-3" x="71.28" y="23.72" width="0.69" height="0.69" transform="translate(30.64 87.54) rotate(-75.72)"/><path class="cls-4" d="M69.51,23.07l-.14.07.11,0-.16.66-.85-.21a1,1,0,0,1,.09-.93,1.14,1.14,0,0,1,.71-.52,3.28,3.28,0,0,0,.52-.2Z"/><path class="cls-3" d="M71.51,26l.26.06a.32.32,0,0,0,.4-.23h0l.29-1.15-.57-.14Z"/><path class="cls-3" d="M71.32,20.25A2.63,2.63,0,0,1,69.79,22l1-4A2.62,2.62,0,0,1,71.32,20.25Z"/><path class="cls-3" d="M71.16,25.86a.34.34,0,0,1-.24-.4h0l.29-1.15-1.89-.48-5.8,22.76a3.77,3.77,0,0,1-1.23,4.85l-.14.53,2.58.65L71.51,26Z"/><path class="cls-3" d="M70.92,25.46a.34.34,0,0,0,.24.4h0l.35.09.38-1.47-.68-.17Z"/><path class="cls-4" d="M68.56,22.68a1.18,1.18,0,0,1,.71-.52,3.24,3.24,0,0,0,.52-.19l1-4a4.53,4.53,0,0,0-2.51-1.6c-2.08-.52-4.09.33-4.5,1.93a2.6,2.6,0,0,0,.5,2.19,3.5,3.5,0,0,0,.64.69v0a1.2,1.2,0,0,1-.12,1.43L52.11,19.45,49.24,30.71A3.89,3.89,0,0,1,52.61,30a4.32,4.32,0,0,1-2.13,8.34A3.9,3.9,0,0,1,47.88,36L44.94,47.58,56.2,50.45a3.87,3.87,0,0,1-.72-3.33,4.15,4.15,0,0,1,5.16-2.81,4.38,4.38,0,0,1,2.88,2.28l5.8-22.76-.85-.21A1,1,0,0,1,68.56,22.68Z"/><path class="cls-4" d="M69.48,23.17l0-.1-.14.07Z"/><path class="cls-13" d="M67.49,65.65a17.1,17.1,0,0,1,.93,3.48,3,3,0,0,1,.31,1.2,6.11,6.11,0,0,0,.32,1.56L70.15,76a3.67,3.67,0,0,0,.29,1.84c.42.76.37.53.18,1.87a3,3,0,0,0,.94,3c.71.4-.31,1.32-.31,1.32s4.52,1.22,5.46.47S76.22,80,76.22,80a24.67,24.67,0,0,0,.08-3.56c-.16-.45-.83-4.31-.83-4.31a7.22,7.22,0,0,1-.25-2c.16-.3-.1-1.13-.1-1.13s-.67-1-.61-1.24a1.8,1.8,0,0,0-.2-.83s2-3.07,1.83-3.65a3.33,3.33,0,0,1,.08-1.5l.55-.95c.38-.64.83-1.4,1-1.64a20.82,20.82,0,0,0,.92-2.34l.18-.53a63.33,63.33,0,0,0,.59,6.37,46.1,46.1,0,0,1,.69,5.24,3.4,3.4,0,0,1,.2,1.3A32.91,32.91,0,0,0,81,73.07a11.93,11.93,0,0,1,.1,2.84,43.43,43.43,0,0,0,0,4.93,5.49,5.49,0,0,0-1.35,1.5,6.46,6.46,0,0,0,0,2.41s3.14,1.57,4.53,1.16.83-2.79.83-2.79A7.67,7.67,0,0,0,86,80.93a24.1,24.1,0,0,1,.34-2.47c1.2-2.2.73-7.54.93-8s-.42-2-.91-2.77a4.68,4.68,0,0,1,0-3.26c.3-.57-.3-2.54-.3-2.54s.57-3.81.55-4.4a13.15,13.15,0,0,1,.49-2.34s.51-.91.39-1.18.4-1,.26-1.3a3.55,3.55,0,0,1,.37-1.84A11.58,11.58,0,0,0,88.55,49c.12-.68.21-1.28.21-1.28l-3.25-2.61L77.42,43l-3-1-3,4.68c-.21.34-.4.69-.58,1.05a3.13,3.13,0,0,0-.4,1.37,1.85,1.85,0,0,1-.28,1.21S68.37,56,68.41,57.57a36.18,36.18,0,0,1-.63,5.15S67.06,65,67.49,65.65Z"/><path class="cls-8" d="M79.46,20.08c.13,0,8.68-3.59,7.5-4.29-.7-.41-1.56-2.18-2.15-3.56-.41-1-.69-1.75-.69-1.75s-6.86-1.21-4.4,3a7.88,7.88,0,0,1,.86,2.08A4.64,4.64,0,0,1,79.46,20.08Z"/><path class="cls-9" d="M79.72,13.47a7.88,7.88,0,0,1,.86,2.08,4.78,4.78,0,0,0,4-2.85,4.52,4.52,0,0,0,.18-.47c-.41-1-.69-1.75-.69-1.75S77.26,9.27,79.72,13.47Z"/><path class="cls-8" d="M75.45,10.6a4.8,4.8,0,1,0,.19-1.33A4.65,4.65,0,0,0,75.45,10.6Z"/><path class="cls-9" d="M70.82,47.77a3,3,0,0,1,.7,1.32s2.36,1.62,2.2.59,1.22-5.15,1.22-5.15l-.16,5.63s7.55-.36,8.1-.91a19,19,0,0,1,3.78-1.6s1,.79,1.89,1.39c.12-.68.21-1.28.21-1.28l-3.25-2.61L77.42,43l-3-1-3,4.68C71.19,47.06,71,47.41,70.82,47.77Z"/><path class="cls-14" d="M70.58,47.33a2.67,2.67,0,0,1,.86,1.45s2.36,1.61,2.2.59,1.22-5.15,1.22-5.15l-.16,5.62s7.55-.35,8.1-.9a18.5,18.5,0,0,1,3.78-1.61s2.79,2.24,3.3,2-.91-4-.91-4L87.52,23s.39-6.65-.2-6.88a.78.78,0,0,1-.24-.16,2.48,2.48,0,0,1-.54-1.65c0-.71-1-.36-1-.36l.55.71-4.87,3,0,0a3.91,3.91,0,0,0-.59-.26,2.05,2.05,0,0,0-1.38-.17,1.41,1.41,0,0,0-.51.46A6.07,6.07,0,0,0,78,19.06l-1.76,3s-.9,4-.9,4.13a21.52,21.52,0,0,1-.59,4.17,6.61,6.61,0,0,0-.52,2.95,16,16,0,0,1-.19,2.79c-1.3,1.06-2,4.68-2,4.68s-2,4.05-2.21,4.52A2.15,2.15,0,0,0,70.58,47.33Z"/><path class="cls-9" d="M81.23,17.81a10,10,0,0,0,1.86,1.7l4-3.36a2.49,2.49,0,0,1-.54-1.66c0-.71-1-.35-1-.35l.12.14a.64.64,0,0,1-.11.89l-.06,0Z"/><path class="cls-14" d="M81.23,17.65a10.14,10.14,0,0,0,1.86,1.71l4-3.37a2.48,2.48,0,0,1-.54-1.65c0-.71-1-.36-1-.36l.12.14a.64.64,0,0,1-.11.89l-.06,0Z"/><path class="cls-9" d="M79.39,18.18c.51.62,1.24,1.32,1.21,1a3.17,3.17,0,0,1,.73-1.47,2.16,2.16,0,0,0-1.42,0A1.44,1.44,0,0,0,79.39,18.18Z"/><path class="cls-14" d="M79.31,18c.52.61,1.25,1.31,1.21,1s.39-.91.69-1.26a2.13,2.13,0,0,0-1.38-.17A1.38,1.38,0,0,0,79.31,18Z"/><circle class="cls-15" cx="80.6" cy="20.9" r="0.31"/><circle class="cls-15" cx="78.22" cy="29.4" r="0.31"/><circle class="cls-15" cx="75.52" cy="37.99" r="0.31"/><circle class="cls-15" cx="75.44" cy="47.35" r="0.31"/><circle class="cls-15" cx="79.21" cy="24.91" r="0.31"/><circle class="cls-15" cx="77.09" cy="33.64" r="0.31"/><circle class="cls-15" cx="75.02" cy="42.21" r="0.31"/><circle class="cls-15" cx="75.49" cy="48.4" r="0.31"/><path class="cls-9" d="M87.08,16.18s-.06-.47.62.34a8,8,0,0,0,2,1.52s2.91,2.05,3.07,3,1.1,5,.6,6.39-4.3,7.9-4.3,7.9a3.55,3.55,0,0,1,.76,2.57,17.6,17.6,0,0,0-.4,3.72c.13.42-.15,1.46.29,1.83s.91,1-.47,1.84c0,0-.27.7,0,.86s-3.49,1.78-5,.92-4.11-7.79-4.17-9.33a36.77,36.77,0,0,1,1.28-7.87c.48-1.2,1.89-5.89,2.5-6.94S87.08,16.18,87.08,16.18Z"/><path class="cls-10" d="M87.23,16.18s0-.47.63.34a8,8,0,0,0,2,1.52s2.91,2.05,3.06,3,1.1,5,.61,6.39-4.3,7.9-4.3,7.9A3.55,3.55,0,0,1,90,37.89a17.6,17.6,0,0,0-.4,3.72c.13.42-.15,1.46.29,1.83s.91,1-.47,1.84c0,0-.27.7,0,.86s-3.49,1.78-5,.92-4.11-7.79-4.17-9.33a36.77,36.77,0,0,1,1.28-7.87C82,28.66,83.39,24,84,22.92S87.23,16.18,87.23,16.18Z"/><path class="cls-9" d="M88.28,20.64S86,23.13,86.1,24.78A5.29,5.29,0,0,1,88.28,20.64Z"/><path class="cls-9" d="M85.16,24.73c0,.08-1.52,5.74-1.44,6.45a13.56,13.56,0,0,1-.45,2.8l-.7-.18s.55-2.91.65-4A33.32,33.32,0,0,1,85.16,24.73Z"/><path class="cls-9" d="M84.56,40.88c0,.08,3.59,4.09,2.59,4.37S84.56,40.88,84.56,40.88Z"/><path class="cls-9" d="M87.47,39.85c.08,0,1.42,2.88,1.57,2.13s-1.15,2.07-1.36,0Z"/><path class="cls-9" d="M80.67,17.08s-1.46-.89-3.29,1.39c0,0-1.34.76-1.73.94s-.84,5.06-.84,5.06a7.74,7.74,0,0,0-.63,3.3c.23,1.21-.68,5.35-.68,5.35S72,40.56,72,40.77a7.51,7.51,0,0,0,1.52-3.59A22.39,22.39,0,0,1,75,31.75c.18-.23,1.44-7,1.44-7A25.16,25.16,0,0,1,78.11,21c.65-.94,1.47-2.72,1.81-3a3.29,3.29,0,0,1,.81-.52Z"/><path class="cls-10" d="M80.69,17.08s-1.64-.89-3.47,1.39c0,0-1.34.76-1.73.94s-.84,5.06-.84,5.06a7.9,7.9,0,0,0-.63,3.3c.24,1.21-.68,5.35-.68,5.35s-1.52,7.44-1.47,7.65a7.46,7.46,0,0,0,1.52-3.59,22.86,22.86,0,0,1,1.44-5.43c.19-.23,1.45-7,1.45-7A25.16,25.16,0,0,1,78,21c.65-.94,1.47-2.72,1.81-3a3.28,3.28,0,0,1,1-.52Z"/><path class="cls-8" d="M73.5,33.46s-3.12-2.05-4.63-1-4,2.44-1.55,3.48a15.21,15.21,0,0,0,5.78.83Z"/><path class="cls-9" d="M75.67,53.18c.46,1,.85,6,1.1,7.6.38-.64.83-1.4,1-1.64a20.82,20.82,0,0,0,.92-2.34,15.47,15.47,0,0,1-1.12-3.54c0-.93-1.49-2.09-1.49-2.09A1.74,1.74,0,0,0,75.67,53.18Z"/><path class="cls-9" d="M85.69,68.58s-3.46-1.48-4.48-.43S85.69,68.58,85.69,68.58Z"/><path class="cls-9" d="M83.75,69.16s3.5,2,2.3,2.3S83.75,69.16,83.75,69.16Z"/><path class="cls-9" d="M73.29,67.46s1.49.09.92.39S73.29,67.46,73.29,67.46Z"/><path class="cls-9" d="M71.42,67.91c0,.1,4.34,1.49,3.5,2.12S71.42,67.91,71.42,67.91Z"/><path class="cls-9" d="M85.18,79.94c-.65-.1-4.26-1.77-2.85-.57A2.79,2.79,0,0,0,85.18,79.94Z"/><path class="cls-9" d="M83.39,81.26a1.4,1.4,0,0,1-1.51,1.06C80.68,82.16,83.39,81.26,83.39,81.26Z"/><path class="cls-9" d="M84.4,83.73c-.22-.06-2.8-1.24-2.86-.69S84,84.56,84.2,84.26A1.11,1.11,0,0,0,84.4,83.73Z"/><path class="cls-9" d="M76.06,82.32c-.32,0-3.26-1-3.85-.12Z"/><path class="cls-9" d="M73.39,82.87a1.05,1.05,0,0,0-1-.22C71.85,82.89,73.39,82.87,73.39,82.87Z"/><path class="cls-9" d="M79.91,87.74a.88.88,0,0,1-.67.69Z"/><path class="cls-12" d="M64.86,89.59c.2.81,3,.88,4.27.67s4-1,4-1a22.66,22.66,0,0,0,3.72-.63c.84-.36.18-1.26.18-1.26v-.09a5,5,0,0,0-.13-1.84,4,4,0,0,1-.09-1.59s-4.07.78-4.15.41a2.13,2.13,0,0,0-1-1c-.29-.12-.51,1-.51,1s-1.84,1.58-2,2.15-1.42.86-1.42.86a23,23,0,0,0-2.48.82,1,1,0,0,0-.54.77A2.22,2.22,0,0,0,64.86,89.59Z"/><path class="cls-9" d="M64.86,89.59c.2.81,3,.88,4.27.67s4-1,4-1a22.66,22.66,0,0,0,3.72-.63c.84-.36.18-1.26.18-1.26v-.09L73,88.2a11.29,11.29,0,0,1-3.33.86c-1.13,0-3.67.46-4.84-.24A2,2,0,0,0,64.86,89.59Z"/><path class="cls-9" d="M70.48,86.48s.19,1.3,1,1.73Z"/><path class="cls-9" d="M75.61,9.27a1.22,1.22,0,0,0,.24.1c.36.1.72-.15,1.05-.35s.78-.34,1.06-.08.11,1.05.49,1.37.62.14.89.31a1.29,1.29,0,0,1,.42.85c.06.32.2.69.51.78s.6-.11.91-.1c.07,0,.14,0,.18,0a.17.17,0,0,0,0-.14,3.31,3.31,0,0,1,.1-1.13,1.12,1.12,0,0,1,.8-.75c.56-.08,1,.4,1.34.85a14.42,14.42,0,0,1,.93,1.5l0,.1a4.79,4.79,0,1,0-8.77-3.88,4.62,4.62,0,0,0-.23.62Z"/><path class="cls-16" d="M83.66,10.86c-.33-.45-.79-.94-1.34-.85a1.1,1.1,0,0,0-.8.75,2.88,2.88,0,0,0-.1,1.13.17.17,0,0,1,0,.14.23.23,0,0,1-.18,0c-.31,0-.62.19-.91.1s-.45-.46-.52-.78a1.24,1.24,0,0,0-.42-.85c-.27-.18-.65-.1-.89-.31s-.11-1-.48-1.38-.74-.1-1.06.09a1.45,1.45,0,0,1-1.06.35,2.28,2.28,0,0,1-.36-.15c-.58-.22-1.34.15-1.82-.25a1.39,1.39,0,0,1-.36-.62,3.85,3.85,0,0,1-.26-1,1.31,1.31,0,0,1,.26-1c.31-.37.84-.46,1.24-.73a3.08,3.08,0,0,0,.79-.93,3.43,3.43,0,0,1,.77-1,1.13,1.13,0,0,1,1.15-.18,1.33,1.33,0,0,0,.38.18.88.88,0,0,0,.42-.11,8,8,0,0,1,4.44-.34,5.47,5.47,0,0,1,1.75.42,2.12,2.12,0,0,1,1.19,1.3c.12.46,0,1,.17,1.41s.3.57.43.88a4.91,4.91,0,0,1-.23,2.61,12.14,12.14,0,0,1-.49,2.89c-.08.18-.17.49-.37.37s-.29-.59-.38-.74A14.42,14.42,0,0,0,83.66,10.86Z"/><path class="cls-9" d="M92.3,26.23l.71,2s-1.68,6.24-2.47,7.55-1.94,3-1.94,3a7.16,7.16,0,0,1-4.19.52c-2.26-.44-8.84-1.62-8.84-1.62a.88.88,0,0,1-.84-.32C74.44,37,73,36.73,73,36.73s-1.73-2.51.39-3.56c0,0,.26.57,1.39.18s1.47.32,1.47.32a12.09,12.09,0,0,0,2.85.23,30.91,30.91,0,0,0,3.83-.39.33.33,0,0,1,.47,0,2.85,2.85,0,0,0,.84-.48c.21-.23.5.27.5.27s.37-.21.26-.48.34-1.25.34-1.25a2.57,2.57,0,0,0,.08-1.18A7.73,7.73,0,0,1,86,28a3.38,3.38,0,0,0-.11-1c-.13-.47,1-1.42,1-1.42s1.1-5.34,3.44-3.59A4.63,4.63,0,0,1,92.3,26.23Z"/><path class="cls-10" d="M92.45,26.23l.71,2s-1.68,6.24-2.47,7.55-1.94,3-1.94,3a7.16,7.16,0,0,1-4.19.52c-2.26-.44-8.83-1.62-8.83-1.62a.88.88,0,0,1-.84-.32c-.29-.41-1.79-.63-1.79-.63s-1.73-2.51.4-3.56c0,0,.26.57,1.39.18s1.46.32,1.46.32a12.19,12.19,0,0,0,2.86.23A30.91,30.91,0,0,0,83,33.51a.33.33,0,0,1,.47,0,2.85,2.85,0,0,0,.84-.48c.21-.23.5.27.5.27s.36-.21.26-.48.34-1.25.34-1.25a2.57,2.57,0,0,0,.08-1.18A7.77,7.77,0,0,1,86.18,28a3.38,3.38,0,0,0-.1-1c-.13-.47,1-1.42,1-1.42s1.1-5.34,3.43-3.59A4.6,4.6,0,0,1,92.45,26.23Z"/><path class="cls-9" d="M75.41,34.66c0,.19.6.92.39,1.05s-.55.06-.23.48.28,1,.08,1a2.53,2.53,0,0,1-.55-1.39A4.23,4.23,0,0,1,75.41,34.66Z"/><path class="cls-9" d="M83.2,34.25s.15,1.83,1.44,2.36S83.2,34.25,83.2,34.25Z"/><path class="cls-9" d="M85.87,33.61c.08,0,1.83,1,1,1.53S85.87,33.61,85.87,33.61Z"/><path class="cls-9" d="M86,32.31s2.57.52,1.7,1S86,32.31,86,32.31Z"/><g class="cls-2"><path d="M81.52,10.31a1.12,1.12,0,0,1,.8-.75c.56-.08,1,.4,1.34.85a12.9,12.9,0,0,1,.93,1.5c.09.16.23.66.38.74s.28-.19.37-.37a12.14,12.14,0,0,0,.49-2.88,14.87,14.87,0,0,0,.34-1.69,8.08,8.08,0,0,1-.34,2.1,12.14,12.14,0,0,1-.49,2.89c-.08.18-.17.49-.37.37s-.29-.58-.38-.74a12.9,12.9,0,0,0-.93-1.5c-.32-.45-.78-.94-1.34-.85a1.1,1.1,0,0,0-.8.75,2.35,2.35,0,0,0-.1.59A2.87,2.87,0,0,1,81.52,10.31Z"/><path d="M73.33,7.82a1.42,1.42,0,0,0,.36.63c.48.4,1.24,0,1.82.24a2.28,2.28,0,0,0,.36.15,1.45,1.45,0,0,0,1.06-.35c.32-.19.78-.34,1.06-.08s.1,1.05.48,1.37.63.15.89.31.35.54.42.85.2.68.52.78.6-.11.91-.1c.06,0,.14,0,.18,0a.05.05,0,0,0,0,0c0,.11,0,.21,0,.32a.17.17,0,0,1,0,.14.23.23,0,0,1-.18,0c-.31,0-.62.19-.91.1s-.45-.45-.52-.77-.14-.69-.42-.85-.65-.1-.89-.31-.11-1-.48-1.37-.74-.12-1.06.08a1.45,1.45,0,0,1-1.06.35,2.28,2.28,0,0,1-.36-.15c-.58-.22-1.34.15-1.82-.25a1.39,1.39,0,0,1-.36-.62,4,4,0,0,1-.26-1,2,2,0,0,1,0-.35A4.37,4.37,0,0,0,73.33,7.82Z"/></g></g></g></svg>